<?xml version="1.0" encoding="UTF-8"?>
<svg width="600" height="400" viewBox="0 0 600 400" fill="none" xmlns="http://www.w3.org/2000/svg">
  <rect width="600" height="400" rx="20" fill="#F0F9FF"/>
  <circle cx="300" cy="150" r="80" fill="#7DD3FC"/>
  <circle cx="300" cy="130" r="20" fill="#1E40AF"/>
  <path d="M260 190C260 179.507 268.507 171 279 171H321C331.493 171 340 179.507 340 190V220C340 230.493 331.493 239 321 239H279C268.507 239 260 230.493 260 220V190Z" fill="#1E40AF"/>
  <path d="M300 100C300 89.5066 308.507 81 319 81H381C391.493 81 400 89.5066 400 100V120C400 130.493 391.493 139 381 139H319C308.507 139 300 130.493 300 120V100Z" fill="#7DD3FC"/>
  <path d="M200 100C200 89.5066 208.507 81 219 81H281C291.493 81 300 89.5066 300 100V120C300 130.493 291.493 139 281 139H219C208.507 139 200 130.493 200 120V100Z" fill="#7DD3FC"/>
  <path d="M400 200C400 189.507 408.507 181 419 181H481C491.493 181 500 189.507 500 200V220C500 230.493 491.493 239 481 239H419C408.507 239 400 230.493 400 220V200Z" fill="#7DD3FC"/>
  <path d="M100 200C100 189.507 108.507 181 119 181H181C191.493 181 200 189.507 200 200V220C200 230.493 191.493 239 181 239H119C108.507 239 100 230.493 100 220V200Z" fill="#7DD3FC"/>
  <path d="M300 300C300 289.507 308.507 281 319 281H381C391.493 281 400 289.507 400 300V320C400 330.493 391.493 339 381 339H319C308.507 339 300 330.493 300 320V300Z" fill="#7DD3FC"/>
  <path d="M200 300C200 289.507 208.507 281 219 281H281C291.493 281 300 289.507 300 300V320C300 330.493 291.493 339 281 339H219C208.507 339 200 330.493 200 320V300Z" fill="#7DD3FC"/>
</svg>
